<svg height="480pt" viewBox="0 0 480 480.0012" width="480pt" xmlns="http://www.w3.org/2000/svg"><path d="m472 320h-24v-24c0-4.417969-3.582031-8-8-8h-24v-232c0-4.417969-3.582031-8-8-8h-296v-40c0-2.949219-1.625-5.660156-4.226562-7.054688-2.601563-1.390624-5.757813-1.238281-8.210938.398438l-19.5625 13.058594-19.558594-13.058594c-2.457031-1.636719-5.613281-1.789062-8.214844-.398438-2.601562 1.394532-4.226562 4.105469-4.226562 7.054688v40h-40c-4.417969 0-8 3.582031-8 8v256c0 4.417969 3.582031 8 8 8h40v88c0 2.953125 1.625 5.664062 4.226562 7.054688 2.601563 1.394531 5.757813 1.242187 8.214844-.398438l19.558594-13.054688 19.5625 13.039063c2.449219 1.636719 5.605469 1.792969 8.207031.402344 2.597657-1.386719 4.226563-4.09375 4.230469-7.042969v-88h32v120c0 4.417969 3.582031 8 8 8h24v24c0 4.417969 3.582031 8 8 8h288c4.417969 0 8-3.582031 8-8v-144c0-4.417969-3.582031-8-8-8zm-408-297.054688 11.5625 7.710938c2.6875 1.792969 6.191406 1.792969 8.878906 0l11.558594-7.710938v25.054688h-32zm32 370.113282-11.558594-7.714844c-2.6875-1.792969-6.191406-1.792969-8.878906 0l-11.5625 7.714844v-73.058594h32zm48-97.058594v8h-128v-240h384v224h-248c-4.417969 0-8 3.582031-8 8zm16 8h272v128h-272zm304 160h-272v-16h248c4.417969 0 8-3.582031 8-8v-104h16zm0 0"/><path d="m216 344c-13.253906 0-24 10.746094-24 24 0 13.257812 10.746094 24 24 24s24-10.742188 24-24c0-13.253906-10.746094-24-24-24zm0 32c-4.417969 0-8-3.582031-8-8s3.582031-8 8-8 8 3.582031 8 8-3.582031 8-8 8zm0 0"/><path d="m376 344c-13.253906 0-24 10.746094-24 24 0 13.257812 10.746094 24 24 24s24-10.742188 24-24c0-13.253906-10.746094-24-24-24zm0 32c-4.417969 0-8-3.582031-8-8s3.582031-8 8-8 8 3.582031 8 8-3.582031 8-8 8zm0 0"/><path d="m296 344c4.417969 0 8 3.582031 8 8h16c-.042969-10.132812-6.445312-19.148438-16-22.527344v-9.472656h-16v9.472656c-11.011719 3.878906-17.621094 15.136719-15.640625 26.640625 1.976563 11.507813 11.964844 19.910157 23.640625 19.886719 4.417969 0 8 3.582031 8 8s-3.582031 8-8 8-8-3.582031-8-8h-16c.042969 10.136719 6.445312 19.152344 16 22.527344v9.472656h16v-9.472656c11.011719-3.878906 17.621094-15.132813 15.644531-26.640625-1.980469-11.503907-11.96875-19.90625-23.644531-19.886719-4.417969 0-8-3.582031-8-8s3.582031-8 8-8zm0 0"/><path d="m324 145.058594-112-64c-2.457031-1.40625-5.476562-1.40625-7.933594 0l-112 64c-2.492187 1.421875-4.027344 4.074218-4.027344 6.941406 0 2.871094 1.535157 5.519531 4.027344 6.945312l12 6.839844v58.214844h16v-49.070312l16 9.144531v47.925781c0 2.121094.84375 4.15625 2.34375 5.65625l9.367188 9.375c33.296875 33.292969 87.277344 33.292969 120.574218 0l9.367188-9.375c1.480469-1.507812 2.296875-3.542969 2.28125-5.65625v-47.925781l44-25.128907c2.492188-1.425781 4.027344-4.074218 4.027344-6.945312 0-2.867188-1.535156-5.519531-4.027344-6.941406zm-60 83.628906-7.023438 7.035156c-27.050781 27.039063-70.898437 27.039063-97.953124 0l-7.023438-7.035156v-35.46875l52 29.726562c2.460938 1.40625 5.476562 1.40625 7.9375 0l52.0625-29.726562zm-56-21.894531-95.871094-54.792969 95.871094-54.789062 95.871094 54.789062zm0 0"/></svg>